<?xml version="1.0" standalone="no"?>
<!DOCTYPE svg PUBLIC "-//W3C//DTD SVG 20010904//EN"
 "http://www.w3.org/TR/2001/REC-SVG-20010904/DTD/svg10.dtd">
<svg version="1.0" xmlns="http://www.w3.org/2000/svg"
 width="187.000000pt" height="187.000000pt" viewBox="0 0 187.000000 187.000000"
 preserveAspectRatio="xMidYMid meet">
<metadata>
Created by potrace 1.14, written by Peter Selinger 2001-2017
</metadata>
<g transform="translate(0.000000,187.000000) scale(0.100000,-0.100000)"
fill="#000000" stroke="none">
<path d="M221 1854 c-85 -30 -152 -90 -193 -172 l-23 -47 0 -700 0 -700 34
-63 c36 -66 75 -103 151 -143 l45 -24 700 0 700 0 50 25 c62 30 125 94 156
157 l24 48 0 695 0 695 -28 59 c-31 67 -87 124 -155 158 l-47 23 -685 2 c-598
2 -691 0 -729 -13z"/>
</g>
</svg>
